<?xml version="1.0" encoding="UTF-8" standalone="no"?>
<!-- Created with Inkscape (http://www.inkscape.org/) -->

<svg
   width="94.101479mm"
   height="94.101486mm"
   viewBox="0 0 94.101479 94.101486"
   version="1.1"
   id="svg5"
   inkscape:version="1.2.1 (9c6d41e410, 2022-07-14)"
   sodipodi:docname="tauon-final.svg"
   xml:space="preserve"
   inkscape:export-filename="tauon-final.svg"
   inkscape:export-xdpi="96"
   inkscape:export-ydpi="96"
   xmlns:inkscape="http://www.inkscape.org/namespaces/inkscape"
   xmlns:sodipodi="http://sodipodi.sourceforge.net/DTD/sodipodi-0.dtd"
   xmlns="http://www.w3.org/2000/svg"
   xmlns:svg="http://www.w3.org/2000/svg"><sodipodi:namedview
     id="namedview7"
     pagecolor="#505050"
     bordercolor="#eeeeee"
     borderopacity="1"
     inkscape:showpageshadow="0"
     inkscape:pageopacity="0"
     inkscape:pagecheckerboard="0"
     inkscape:deskcolor="#505050"
     inkscape:document-units="mm"
     showgrid="false"
     inkscape:zoom="0.7071068"
     inkscape:cx="261.6295"
     inkscape:cy="255.97265"
     inkscape:window-width="1920"
     inkscape:window-height="1024"
     inkscape:window-x="1920"
     inkscape:window-y="22"
     inkscape:window-maximized="1"
     inkscape:current-layer="layer1" /><defs
     id="defs2" /><g
     inkscape:label="Layer 1"
     inkscape:groupmode="layer"
     id="layer1"
     transform="translate(-63.3309,-150.98475)"><ellipse
       style="fill:#a663e5;fill-opacity:1;fill-rule:evenodd;stroke:#484537;stroke-width:6.29958;stroke-miterlimit:5;stroke-dasharray:none"
       id="path1730"
       cx="110.38164"
       cy="198.03549"
       rx="43.900948"
       ry="43.900951" /><circle
       style="fill:#e3dedb;fill-opacity:1;fill-rule:evenodd;stroke:#484537;stroke-width:4.297;stroke-miterlimit:5;stroke-dasharray:none"
       id="path1786"
       cx="110.38164"
       cy="198.03548"
       r="6.0431581" /><path
       style="fill:#e3dedb;fill-rule:evenodd;stroke:#e3dedb;stroke-width:4.9;stroke-linecap:round;paint-order:fill markers stroke"
       id="path513"
       sodipodi:type="arc"
       sodipodi:cx="110.38163"
       sodipodi:cy="197.71484"
       sodipodi:rx="17.449202"
       sodipodi:ry="17.563311"
       sodipodi:start="0.15988098"
       sodipodi:end="0.99014214"
       sodipodi:arc-type="arc"
       d="m 127.60829,200.51094 a 17.449202,17.563311 0 0 1 -7.65453,11.88866"
       sodipodi:open="true" /><path
       style="fill:#e3dedb;fill-rule:evenodd;stroke:#e3dedb;stroke-width:0.0668132;stroke-linecap:round;stroke-dasharray:none;stroke-dashoffset:0;paint-order:fill markers stroke"
       d="m 461.42582,840.7499 c -8.09721,-17.01472 -14.77272,-31.06749 -14.83446,-31.22838 -0.0617,-0.16089 0.31862,0.0503 0.84524,0.46934 2.32504,1.85003 5.24852,2.52143 8.07613,1.85476 1.45955,-0.34412 2.58295,-0.92396 4.72539,-2.43901 13.31038,-9.41253 23.00457,-22.38277 28.23472,-37.77634 1.60393,-4.72075 3.14609,-11.51912 3.14054,-13.84454 -0.009,-3.79268 -2.35237,-7.2608 -5.83102,-8.63 -0.76553,-0.30132 0.49314,-0.31329 33.41079,-0.31772 l 34.20629,-0.005 -1.14905,0.56583 c -2.05866,1.01376 -3.86623,3.1282 -4.71291,5.51304 -0.14053,0.39584 -0.41074,2.39024 -0.60047,4.43201 -0.55255,5.94631 -1.16755,10.22386 -2.1958,15.27246 -0.36575,1.79577 -0.56893,2.38567 -1.12646,3.27036 -20.41029,32.38754 -45.9229,72.75456 -46.13204,72.99188 -0.3624,0.41124 -3.62532,2.85332 -6.22028,4.65548 -2.65617,1.84466 -6.24659,4.11733 -9.07331,5.74322 -2.58719,1.48812 -4.00638,2.75925 -4.8413,4.33622 -0.81301,1.53561 -1.12182,2.77603 -1.12656,4.52518 -0.002,0.85073 -0.0197,1.54676 -0.0387,1.54672 -0.019,-4e-5 -6.65952,-13.9212 -14.75673,-30.93591 z"
       id="path4133"
       transform="scale(0.26458333)" /><path
       style="fill:#c8c4b7;fill-rule:evenodd;stroke:#6c6753;stroke-width:0.0176777;stroke-linecap:round;stroke-dasharray:none;stroke-dashoffset:0;paint-order:fill markers stroke"
       d="m 144.83595,196.51786 c -0.22913,0.44645 0.10903,0.2566 0.16398,-0.0793 -0.0547,0.0264 -0.10932,0.0529 -0.16398,0.0793 z m -20.84266,0.34951 c -0.0155,0.22637 -0.35686,0.22396 -0.5145,0.36084 -0.54721,0.32577 -0.92899,0.88807 -1.02871,1.51736 -0.32012,1.7534 -0.87212,3.47208 -1.74995,5.02885 -1.17576,2.14483 -2.89059,3.97094 -4.90281,5.35323 -0.58979,0.3698 -0.99673,1.01011 -1.02281,1.71199 -0.0522,0.18999 0.10909,0.52357 -0.12533,0.57205 2.98,6.27588 5.96233,12.55068 8.9512,18.82232 -0.43803,0.12963 -0.19022,0.26736 0.0916,0.087 0.2065,-0.0506 0.35974,0.24737 0.558,0.32552 0.59915,0.40873 1.40981,0.43191 2.06897,0.16545 2.07227,-1.10943 4.01257,-2.45528 5.83611,-3.94257 5.05116,-4.14677 9.05881,-9.56782 11.48357,-15.6261 1.51501,-3.77173 2.45198,-7.79875 2.72916,-11.85361 0.0746,-0.65224 -0.11646,-1.34275 -0.58686,-1.82387 -0.23585,-0.26584 -0.55571,-0.43045 -0.87278,-0.57844 0.021,-0.26418 -0.51481,-0.057 -0.72789,-0.12297 -6.15298,-0.003 -12.30596,-0.002 -18.45893,0.001 -0.10917,0.24224 -0.52593,0.24413 -0.63215,5.3e-4 -0.33414,2.7e-4 -0.66827,8e-4 -1.00241,0.001 0.14442,-0.35196 -0.1376,-0.55363 -0.0934,9e-5 z m -9.75739,14.67038 c 0.23779,0.28666 0.69938,-0.081 0.14907,-0.0212 -0.0525,-0.0181 -0.0997,0.008 -0.14907,0.0212 z"
       id="path4135" /><path
       style="fill:#c8c4b7;fill-rule:evenodd;stroke:#c8c4b7;stroke-width:0.0176777;stroke-linecap:round;stroke-dasharray:none;stroke-dashoffset:0;paint-order:fill markers stroke"
       d="m 75.607338,199.72768 c 0.22913,-0.44644 -0.10902,-0.25659 -0.16397,0.0793 0.0547,-0.0264 0.10932,-0.0529 0.16397,-0.0793 z m 20.84267,-0.34951 c 0.01545,-0.22637 0.35686,-0.22395 0.514493,-0.36084 0.547217,-0.32577 0.928994,-0.88807 1.028713,-1.51735 0.320117,-1.75341 0.872117,-3.47208 1.749952,-5.02886 1.175764,-2.14483 2.890584,-3.97094 4.902814,-5.35323 0.58979,-0.36979 0.99673,-1.0101 1.02281,-1.71199 0.0522,-0.18999 -0.10909,-0.52357 0.12533,-0.57205 -2.98,-6.27587 -5.962332,-12.55068 -8.951208,-18.82232 0.438036,-0.12963 0.190222,-0.26736 -0.09157,-0.087 -0.206499,0.0506 -0.359735,-0.24737 -0.557998,-0.32552 -0.599149,-0.40873 -1.409808,-0.43191 -2.06897,-0.16544 -2.07227,1.10943 -4.012568,2.45528 -5.836108,3.94256 -5.051163,4.14677 -9.058809,9.56783 -11.483578,15.62611 -1.515,3.77173 -2.45197,7.79874 -2.72915,11.8536 -0.0746,0.65224 0.11645,1.34275 0.58686,1.82388 0.23584,0.26583 0.55571,0.43044 0.87278,0.57844 -0.021,0.26417 0.51481,0.057 0.72789,0.12296 6.152978,0.003 12.305956,0.002 18.458928,-0.001 0.10917,-0.24224 0.525936,-0.24413 0.632156,-5.3e-4 0.334134,-2.6e-4 0.668269,-7.9e-4 1.002406,-0.001 -0.144418,0.35196 0.137596,0.55363 0.09345,-9e-5 z m 9.757392,-14.67038 c -0.2378,-0.28666 -0.69938,0.081 -0.14907,0.0212 0.0525,0.0181 0.0997,-0.008 0.14907,-0.0212 z"
       id="path4135-5" /></g></svg>
