<?xml version="1.0" encoding="UTF-8" standalone="no"?>
<!-- Created with Inkscape (http://www.inkscape.org/) -->

<svg
   width="73.279633mm"
   height="57.39093mm"
   viewBox="0 0 73.279633 57.39093"
   version="1.1"
   id="svg5"
   xml:space="preserve"
   inkscape:version="1.2.1 (9c6d41e410, 2022-07-14)"
   sodipodi:docname="telegram.svg"
   xmlns:inkscape="http://www.inkscape.org/namespaces/inkscape"
   xmlns:sodipodi="http://sodipodi.sourceforge.net/DTD/sodipodi-0.dtd"
   xmlns="http://www.w3.org/2000/svg"
   xmlns:svg="http://www.w3.org/2000/svg"><sodipodi:namedview
     id="namedview7"
     pagecolor="#505050"
     bordercolor="#eeeeee"
     borderopacity="1"
     inkscape:showpageshadow="0"
     inkscape:pageopacity="0"
     inkscape:pagecheckerboard="0"
     inkscape:deskcolor="#505050"
     inkscape:document-units="mm"
     showgrid="false"
     inkscape:zoom="1.4142136"
     inkscape:cx="541.99735"
     inkscape:cy="312.5412"
     inkscape:window-width="1920"
     inkscape:window-height="1024"
     inkscape:window-x="0"
     inkscape:window-y="22"
     inkscape:window-maximized="1"
     inkscape:current-layer="layer1" /><defs
     id="defs2"><linearGradient
       id="linearGradient5739"
       inkscape:swatch="solid"><stop
         style="stop-color:#e3e2db;stop-opacity:1;"
         offset="0"
         id="stop5737" /></linearGradient></defs><g
     inkscape:label="Layer 1"
     inkscape:groupmode="layer"
     id="layer1"
     transform="translate(-99.754641,-58.839461)"><circle
       id="path1877"
       style="fill:#4f4f5b;stroke:#4f4f5b;stroke-width:0.264583"
       cx="172.8869"
       cy="87.387077"
       r="0.015086411" /><path
       style="fill:#67d4f1;fill-opacity:1;fill-rule:evenodd;stroke:#67d4f1;stroke-width:6.8;stroke-linecap:round;stroke-linejoin:round;stroke-dasharray:none;stroke-dashoffset:0;stroke-opacity:1;paint-order:normal"
       id="path12032"
       d="m 126.822,79.079814 c 0.3107,-0.04628 0.62427,-0.0181 0.93623,-0.01672 0.23454,0.0011 0.46909,-0.01061 0.70359,-0.0064 0.57362,0.01027 1.06813,0.04966 1.63983,0.08734 0.5996,0.04414 1.19828,0.112191 1.80002,0.121676 0.32357,0.0051 0.64789,-0.01254 0.9708,-0.03071 0.20781,-0.01349 0.41551,-0.02719 0.62368,-0.03304 0,0 -3.18508,-2.274872 -3.18508,-2.274872 v 0 c -0.18685,0.02572 -0.3734,0.05323 -0.55889,0.08762 -0.79698,0.119237 -1.60211,0.134086 -2.40701,0.103719 -0.63455,-0.02672 -1.00693,-0.03365 -1.64868,-0.09863 -0.28453,-0.02881 -0.56738,-0.07225 -0.85108,-0.108243 -0.39923,-0.05065 -0.79907,-0.09623 -1.19165,-0.188087 0,0 3.16824,2.356373 3.16824,2.356373 z" /><path
       style="fill:#67d4f1;fill-opacity:1;fill-rule:evenodd;stroke:#67d4f1;stroke-width:6.8;stroke-linecap:round;stroke-linejoin:round;stroke-dasharray:none;stroke-dashoffset:0;stroke-opacity:1;paint-order:normal"
       d="m 147.39366,80.254956 c 1.20776,0.652817 2.16384,1.327329 3.52975,1.327329"
       id="path12050" /><path
       style="fill:#67d4f1;fill-opacity:1;fill-rule:evenodd;stroke:#67d4f1;stroke-width:6.8;stroke-linecap:round;stroke-linejoin:round;stroke-dasharray:none;stroke-dashoffset:0;stroke-opacity:1;paint-order:normal"
       d="m 133.74154,75.065923 c 17.42678,2.186131 5.23203,-1.38485 9.26245,-2.675059 0.94237,-0.188473 0.62218,-0.09015 1.50439,-0.397287 0.28936,-0.100738 0.60327,-0.150472 0.86599,-0.308108 0.18827,-0.112958 0.0598,-0.147248 0.26459,-0.198437 0.0428,-0.01069 0.0882,0 0.13229,0 0.17639,-0.0441 0.35375,-0.08445 0.52917,-0.132292 0.77153,-0.210418 1.53609,-0.50415 2.27746,-0.800701 0.64745,-0.258976 2.34401,-0.294259 2.63708,-0.587322"
       id="path12036" /><path
       style="fill:#67d4f1;fill-opacity:1;fill-rule:evenodd;stroke:#67d4f1;stroke-width:6.8;stroke-linecap:round;stroke-linejoin:round;stroke-dasharray:none;stroke-dashoffset:0;stroke-opacity:1;paint-order:normal"
       id="path12030"
       d="m 117.48572,83.493238 c 0.1024,-0.02772 0.27561,-0.07404 0.36122,-0.10101 0.45891,-0.144592 0.46623,-0.164412 0.98891,-0.350734 0.29189,-0.104053 0.58526,-0.203909 0.8779,-0.305867 0.44959,-0.16089 0.89918,-0.321781 1.34877,-0.482674 2.87669,-0.976818 5.83174,-1.694931 8.73158,-2.595671 0.46456,-0.144298 0.92571,-0.29937 1.38856,-0.449058 1.15576,-0.37251 2.32653,-0.696061 3.515,-0.94591 0.37384,-0.07859 1.02355,-0.201864 1.4301,-0.247097 0.13623,-0.01516 0.27372,-0.01537 0.41058,-0.02304 0.0779,0.0086 0.15897,0.0021 0.23373,0.02569 0.0374,0.01177 0.12338,0.096 0.0896,0.07615 -1.12275,-0.659519 -2.26245,-1.292149 -3.35794,-1.996017 -0.0384,-0.02466 0.0501,-0.07839 0.0601,-0.122865 0.003,-0.014 -0.0255,0.01326 -0.0372,0.02159 -0.0236,0.01685 -0.0456,0.03588 -0.0684,0.05383 -0.0268,0.01886 -0.12224,0.118456 -0.14233,0.03739 0,0 3.31348,2.229435 3.31348,2.229435 v 0 c 0.0332,-0.06921 0.0989,-0.116099 0.15545,-0.165304 0.0396,-0.02901 0.14245,-0.101513 0.1688,-0.134869 0.98005,-1.240745 -1.80307,-1.443505 -3.24175,-2.281695 -0.0292,-0.01699 -0.0577,0.0352 -0.0879,0.05039 -0.0499,0.02516 -0.10145,0.04703 -0.15217,0.07055 -1.55747,0.626692 -3.1616,1.123193 -4.73981,1.693341 -0.26267,0.09745 -2.51143,0.93213 -2.73146,1.012145 -0.52336,0.190325 -1.0447,0.386752 -1.57299,0.562919 -1.87237,0.624369 -3.78129,1.144167 -5.724,1.498529 -0.56169,0.08422 -1.1239,0.165044 -1.68507,0.252666 -0.35459,0.05537 -0.7075,0.121195 -1.06214,0.17629 -0.54789,0.08512 -1.11351,0.183755 -1.66956,0.116789 0,0 3.19887,2.324119 3.19887,2.324119 z" /><path
       style="fill:#67d4f1;fill-opacity:1;fill-rule:evenodd;stroke:#67d4f1;stroke-width:6.1;stroke-linecap:round;stroke-linejoin:round;stroke-dasharray:none;stroke-dashoffset:0;stroke-opacity:1;paint-order:normal"
       d="m 148.30151,104.70436 -0.14421,1.31381"
       id="path12064" /><path
       style="fill:#67d4f1;fill-opacity:1;fill-rule:evenodd;stroke:#67d4f1;stroke-width:6.8;stroke-linecap:round;stroke-linejoin:round;stroke-dasharray:none;stroke-dashoffset:0;stroke-opacity:1;paint-order:normal"
       d="m 141.44468,94.53646 c 0.51009,1.85094 1.00556,3.705974 1.53027,5.55282 0.009,0.03 0.0653,0.0973 0.0661,0.0661 0.002,-0.0871 -0.0406,-0.169443 -0.0609,-0.254162"
       id="path12054" /><path
       style="fill:#67d4f1;fill-opacity:1;fill-rule:evenodd;stroke:#67d4f1;stroke-width:0.1;stroke-linecap:round;stroke-linejoin:round;stroke-dasharray:none;stroke-dashoffset:0;stroke-opacity:1;paint-order:normal"
       id="path11907"
       d="m 120.21688,78.97978 c 0.17314,-0.07771 0.27769,-0.126979 0.47525,-0.198491 0.17654,-0.0639 0.35605,-0.119247 0.53374,-0.179863 0.8748,-0.298429 1.01134,-0.35954 1.99456,-0.649799 0.50337,-0.148598 1.01054,-0.283974 1.51581,-0.425963 3.11915,-0.876842 6.31408,-1.429591 9.47732,-2.116198 0.93719,-0.19912 1.85917,-0.458174 2.76604,-0.765559 0,0 -3.16169,-2.09981 -3.16169,-2.09981 v 0 c -0.71936,0.422844 -1.48615,0.753065 -2.26987,1.038257 -0.91112,0.324244 -1.1526,0.4216 -2.13074,0.715536 -2.29179,0.6887 -4.62816,1.220497 -6.98537,1.630244 -0.56651,0.09901 -1.13169,0.20592 -1.69952,0.297032 -0.47574,0.07634 -0.954,0.136059 -1.43083,0.205258 -0.77855,0.112988 -1.55602,0.233339 -2.33748,0.324734 0,0 3.25278,2.224622 3.25278,2.224622 z" /><path
       style="fill:#67d4f1;fill-opacity:1;fill-rule:evenodd;stroke:#67d4f1;stroke-width:6.8;stroke-linecap:round;stroke-linejoin:round;stroke-dasharray:none;stroke-dashoffset:0;stroke-opacity:1;paint-order:normal"
       d="m 162.55236,67.118227 c -0.0225,0.178257 -0.0177,0.362148 -0.0675,0.534778 -4.88505,16.925324 -0.31166,2.036077 -2.20781,6.658806 -0.15406,0.375568 -0.1769,0.819176 -0.26676,1.211376 -0.0739,0.322493 -0.15312,0.57299 -0.20481,0.883142 -0.10399,0.623967 -0.38394,1.195012 -0.59531,1.785938 -0.0977,0.273259 -0.17425,0.554164 -0.28078,0.824118 -0.0361,0.09144 -0.48452,1.280555 -0.66293,1.458971"
       id="path12040" /><path
       style="fill:#67d4f1;fill-opacity:1;fill-rule:evenodd;stroke:#67d4f1;stroke-width:6.8;stroke-linecap:round;stroke-linejoin:round;stroke-dasharray:none;stroke-dashoffset:0;stroke-opacity:1;paint-order:normal"
       d="m 131.03911,86.030765 c 10.83305,-6.853418 7.75667,-5.715249 16.63604,-9.322832 3.89589,-1.582857 0.73303,-0.08826 2.90304,-1.10504 0.16074,-0.07532 0.49691,-0.151781 0.62252,-0.277389"
       id="path12042" /><path
       style="fill:#67d4f1;fill-opacity:1;fill-rule:evenodd;stroke:#67d4f1;stroke-width:6.8;stroke-linecap:round;stroke-linejoin:round;stroke-dasharray:none;stroke-dashoffset:0;stroke-opacity:1;paint-order:normal"
       d="m 110.27907,82.221289 -0.72087,-0.01855 c 0.82406,-0.459199 1.08149,0.70098 1.73775,0.70098"
       id="path12034" /><path
       style="fill:#67d4f1;fill-opacity:1;fill-rule:evenodd;stroke:#67d4f1;stroke-width:6.8;stroke-linecap:round;stroke-linejoin:round;stroke-dasharray:none;stroke-dashoffset:0;stroke-opacity:1;paint-order:normal"
       d="m 155.44528,82.789299 c -1.91093,5.110374 -0.90046,1.960896 -2.3898,11.630384 -0.13176,0.855425 -0.17513,1.509837 -0.17513,2.304587"
       id="path12048" /><path
       style="fill:#67d4f1;fill-opacity:1;fill-rule:evenodd;stroke:#67d4f1;stroke-width:6.8;stroke-linecap:round;stroke-linejoin:round;stroke-dasharray:none;stroke-dashoffset:0;stroke-opacity:1;paint-order:normal"
       d="m 153.32696,69.725724 c 1.45409,-0.755049 2.92156,-1.484886 4.36228,-2.265148 0.61074,-0.330761 1.19455,-0.709094 1.78648,-1.072449 0.0353,-0.0217 0.38402,-0.299127 0.46302,-0.330729 0.4258,-0.170323 0.90274,-0.256818 1.33128,-0.399664 0.18115,-0.06038 0.31914,-0.198437 0.522,-0.198437"
       id="path12038" /><path
       style="fill:#67d4f1;fill-opacity:1;fill-rule:evenodd;stroke:#67d4f1;stroke-width:6.1;stroke-linecap:round;stroke-linejoin:round;stroke-dasharray:none;stroke-dashoffset:0;stroke-opacity:1;paint-order:normal"
       d="m 144.72604,81.025515 c -1.89141,3.404534 -1.27382,2.385102 -6.87836,8.279246 -0.49253,0.517978 -1.21192,0.758404 -1.82666,1.123072 -0.29147,0.172905 -0.60159,0.313295 -0.89125,0.489217 -0.0534,0.03245 -0.0795,0.09973 -0.13262,0.13262 -0.13224,0.08182 -0.27477,0.14646 -0.41764,0.20784 -0.0203,0.0087 -0.0506,-0.01558 -0.0661,0 -0.0863,0.08633 0.10107,0.06615 -0.0606,0.06615"
       id="path12066" /><path
       style="fill:#67d4f1;fill-opacity:1;fill-rule:evenodd;stroke:#67d4f1;stroke-width:6.8;stroke-linecap:round;stroke-linejoin:round;stroke-dasharray:none;stroke-dashoffset:0;stroke-opacity:1;paint-order:normal"
       d="m 149.46697,96.235148 c -0.17966,1.953292 -0.95722,3.844252 -0.95722,5.806992"
       id="path12056" /><path
       style="fill:#67d4f1;fill-opacity:1;fill-rule:evenodd;stroke:#67d4f1;stroke-width:6.8;stroke-linecap:round;stroke-linejoin:round;stroke-dasharray:none;stroke-dashoffset:0;stroke-opacity:1;paint-order:normal"
       d="m 152.55181,99.254002 c 0,2.853008 0.0302,0.950028 -0.51021,6.667398 -0.11568,1.22394 -0.0446,1.07285 -0.59982,1.9092"
       id="path12060" /><path
       style="fill:#67d4f1;fill-opacity:1;fill-rule:evenodd;stroke:#67d4f1;stroke-width:6.8;stroke-linecap:round;stroke-linejoin:round;stroke-dasharray:none;stroke-dashoffset:0;stroke-opacity:1;paint-order:normal"
       d="m 150.46911,85.364337 c -4.88726,7.711406 -3.50725,4.962517 -4.92701,7.802055"
       id="path12052" /><path
       style="fill:#67d4f1;fill-opacity:1;fill-rule:evenodd;stroke:#67d4f1;stroke-width:6.1;stroke-linecap:round;stroke-linejoin:round;stroke-dasharray:none;stroke-dashoffset:0;stroke-opacity:1;paint-order:normal"
       d="m 127.65442,98.514658 7.2078,-6.755447"
       id="path12078" /><path
       style="fill:#67d4f1;fill-opacity:1;fill-rule:evenodd;stroke:#67d4f1;stroke-width:6.1;stroke-linecap:round;stroke-linejoin:round;stroke-dasharray:none;stroke-dashoffset:0;stroke-opacity:1;paint-order:normal"
       d="m 121.22198,105.17147 c 1.17485,-2.58041 1.36883,-2.989 2.55021,-4.17038"
       id="path12084" /><path
       style="fill:#67d4f1;fill-opacity:1;fill-rule:evenodd;stroke:#67d4f1;stroke-width:6.1;stroke-linecap:round;stroke-linejoin:round;stroke-dasharray:none;stroke-dashoffset:0;stroke-opacity:1;paint-order:normal"
       d="m 133.17355,83.424203 c -1.43853,4.110046 -3.04229,7.980818 -5.65279,11.387143 -0.89849,1.172411 -0.56737,0.547862 -1.24525,1.317982 -0.0652,0.07402 -0.0681,0.18972 -0.1323,0.264584 -0.17278,0.201583 -0.34142,0.407577 -0.52916,0.595312 -0.0552,0.05519 -0.14011,0.07397 -0.1953,0.129151"
       id="path12080" /><path
       style="fill:#67d4f1;fill-opacity:1;fill-rule:evenodd;stroke:#67d4f1;stroke-width:6.1;stroke-linecap:round;stroke-linejoin:round;stroke-dasharray:none;stroke-dashoffset:0;stroke-opacity:1;paint-order:normal"
       d="m 122.3442,84.181203 c 0.0187,5.133498 -0.23193,10.256657 -0.36036,15.393789 -0.002,0.06613 0,0.132291 0,0.198437 0,0.01828 0,-0.03657 0,-0.05485"
       id="path12068" /><g
       id="g4149"
       transform="translate(90.258197,-13.502634)"
       style="fill:none;fill-opacity:1;stroke:#4f4f5b;stroke-opacity:1"><path
         style="fill:none;fill-opacity:1;fill-rule:evenodd;stroke:#4f4f5b;stroke-width:4.502;stroke-linecap:round;stroke-linejoin:round;stroke-dasharray:none;stroke-dashoffset:0;stroke-opacity:1;paint-order:normal"
         d="m 56.668772,96.874023 -10.060594,12.808087 15.116958,17.7835"
         id="path3226" /><path
         style="fill:none;fill-opacity:1;fill-rule:evenodd;stroke:#4f4f5b;stroke-width:4.50076;stroke-linecap:round;stroke-linejoin:round;stroke-dasharray:none;stroke-dashoffset:0;stroke-opacity:1;paint-order:normal"
         d="M 76.073038,74.719428 61.848728,127.48264"
         id="path3397" /><path
         style="fill:none;fill-opacity:1;fill-rule:evenodd;stroke:#4f4f5b;stroke-width:4.55361;stroke-linecap:round;stroke-linejoin:round;stroke-dasharray:none;stroke-dashoffset:0;stroke-opacity:1;paint-order:normal"
         d="M 75.926752,74.618897 11.773247,95.411035"
         id="path3401" /><path
         style="fill:none;fill-opacity:1;fill-rule:evenodd;stroke:#4f4f5b;stroke-width:4.61018;stroke-linecap:round;stroke-linejoin:round;stroke-dasharray:none;stroke-dashoffset:0;stroke-opacity:1;paint-order:normal"
         d="m 11.867422,95.466013 17.11018,7.037417"
         id="path4131" /><path
         style="fill:none;fill-opacity:1;fill-rule:evenodd;stroke:#4f4f5b;stroke-width:4.48642;stroke-linecap:round;stroke-linejoin:round;stroke-dasharray:none;stroke-dashoffset:0;stroke-opacity:1;paint-order:normal"
         d="m 29.144002,102.69813 -0.503816,22.27102"
         id="path4137" /><path
         style="fill:none;fill-opacity:1;fill-rule:evenodd;stroke:#4f4f5b;stroke-width:4.69629;stroke-linecap:round;stroke-linejoin:round;stroke-dasharray:none;stroke-dashoffset:0;stroke-opacity:1;paint-order:normal"
         d="M 28.727785,124.73597 38.761756,114.03279"
         id="path4139" /></g><circle
       id="path11911"
       style="fill:#67d4f1;stroke:#67d4f1;stroke-width:0.264583"
       cx="131.41283"
       cy="80.526131"
       r="0.0033299758" /><path
       style="fill:#67d4f1;fill-opacity:1;fill-rule:evenodd;stroke:#67d4f1;stroke-width:6.8;stroke-linecap:round;stroke-linejoin:round;stroke-dasharray:none;stroke-dashoffset:0;stroke-opacity:1;paint-order:normal"
       d="m 145.88186,96.813763 1.21472,2.199846"
       id="path12058" /><path
       style="fill:#67d4f1;fill-opacity:1;fill-rule:evenodd;stroke:#67d4f1;stroke-width:6.8;stroke-linecap:round;stroke-linejoin:round;stroke-dasharray:none;stroke-dashoffset:0;stroke-opacity:1;paint-order:normal"
       d="m 157.05058,71.930481 c -1.21537,4.304022 -0.16011,3.227226 -1.27304,4.340159"
       id="path12044" /><path
       style="fill:#67d4f1;fill-opacity:1;fill-rule:evenodd;stroke:#67d4f1;stroke-width:6.8;stroke-linecap:round;stroke-linejoin:round;stroke-dasharray:none;stroke-dashoffset:0;stroke-opacity:1;paint-order:normal"
       d="m 154.36178,77.148686 c 0,0.196975 0.0211,0.395079 0,0.590918 -0.29506,2.740533 -0.56496,5.484963 -0.94804,8.214585 -0.12124,0.863896 -0.40531,1.697164 -0.62808,2.540606 -0.0958,0.362503 -0.33865,0.773705 -0.33865,1.152131"
       id="path12046" /><path
       style="fill:#67d4f1;fill-opacity:1;fill-rule:evenodd;stroke:#67d4f1;stroke-width:6.1;stroke-linecap:round;stroke-linejoin:round;stroke-dasharray:none;stroke-dashoffset:0;stroke-opacity:1;paint-order:normal"
       d="m 127.23732,84.713899 c -0.62874,3.039308 0.0949,-0.420727 -2.30306,8.265255 -0.23784,0.861531 0.0601,-0.0298 -0.0661,0.727604 -0.0817,0.08174 -0.0662,0.03496 -0.0662,0.132292"
       id="path12082" /><path
       style="fill:#67d4f1;fill-opacity:1;fill-rule:evenodd;stroke:#67d4f1;stroke-width:6.1;stroke-linecap:round;stroke-linejoin:round;stroke-dasharray:none;stroke-dashoffset:0;stroke-opacity:1;paint-order:normal"
       id="path12086"
       d="m 148.19568,91.958998 c 0.003,0.0295 0.006,0.059 0.009,0.08851 0,0 3.50982,1.788343 3.50982,1.788343 v 0 c 0.003,-0.02635 0.006,-0.05269 0.009,-0.07903 0,0 -3.52841,-1.797814 -3.52841,-1.797814 z" /></g></svg>
