<?xml version="1.0" encoding="UTF-8" standalone="no"?>
<!-- Created with Inkscape (http://www.inkscape.org/) -->

<svg
   width="68.231361mm"
   height="67.263931mm"
   viewBox="0 0 68.231361 67.263931"
   version="1.1"
   id="svg5"
   xml:space="preserve"
   inkscape:version="1.2.1 (9c6d41e410, 2022-07-14)"
   sodipodi:docname="xdm.svg"
   xmlns:inkscape="http://www.inkscape.org/namespaces/inkscape"
   xmlns:sodipodi="http://sodipodi.sourceforge.net/DTD/sodipodi-0.dtd"
   xmlns:xlink="http://www.w3.org/1999/xlink"
   xmlns="http://www.w3.org/2000/svg"
   xmlns:svg="http://www.w3.org/2000/svg"><sodipodi:namedview
     id="namedview7"
     pagecolor="#505050"
     bordercolor="#eeeeee"
     borderopacity="1"
     inkscape:showpageshadow="0"
     inkscape:pageopacity="0"
     inkscape:pagecheckerboard="0"
     inkscape:deskcolor="#505050"
     inkscape:document-units="mm"
     showgrid="false"
     inkscape:zoom="1.2068584"
     inkscape:cx="319.01008"
     inkscape:cy="367.06874"
     inkscape:window-width="1920"
     inkscape:window-height="1024"
     inkscape:window-x="1920"
     inkscape:window-y="22"
     inkscape:window-maximized="1"
     inkscape:current-layer="layer1" /><defs
     id="defs2"><linearGradient
       inkscape:collect="always"
       id="linearGradient8419"><stop
         style="stop-color:#808080;stop-opacity:1;"
         offset="0.29316172"
         id="stop8415" /><stop
         style="stop-color:#808080;stop-opacity:0;"
         offset="0.89794743"
         id="stop8417" /></linearGradient><linearGradient
       inkscape:collect="always"
       xlink:href="#linearGradient8419"
       id="linearGradient8421"
       x1="35.636047"
       y1="150.71477"
       x2="35.636047"
       y2="85.832314"
       gradientUnits="userSpaceOnUse"
       gradientTransform="translate(46.114802,-10.467415)" /></defs><g
     inkscape:label="Layer 1"
     inkscape:groupmode="layer"
     id="layer1"
     transform="translate(-47.635171,-74.764906)"><rect
       style="fill:#ffffff;fill-opacity:1;fill-rule:nonzero;stroke:#ffffff;stroke-width:0.801635;stroke-linecap:round;stroke-linejoin:round;stroke-dasharray:none;stroke-opacity:1"
       id="rect9375"
       width="63.809868"
       height="63.700939"
       x="50.275166"
       y="76.546402"
       rx="0.260028"
       ry="0.35316637" /><rect
       style="fill:url(#linearGradient8421);fill-opacity:1;fill-rule:nonzero;stroke:#4f4f5b;stroke-width:3.563;stroke-linecap:round;stroke-linejoin:round;stroke-dasharray:none;stroke-opacity:1"
       id="rect5153"
       width="64.668358"
       height="63.700935"
       x="49.416672"
       y="76.546402"
       rx="0.85849249"
       ry="0.92948794" /><path
       style="fill:#4d4f5b;fill-opacity:1;fill-rule:evenodd;stroke:none;stroke-width:12.6355;stroke-linecap:round;stroke-linejoin:round"
       d="m 90.874705,112.68386 6.695035,4.95215"
       id="path1093" /><g
       id="g8397"
       transform="matrix(1.6100092,0,0,1.6100092,22.737573,-88.215556)"><path
         style="fill:#ffffff;fill-opacity:1;fill-rule:evenodd;stroke:#ffffff;stroke-width:1.563;stroke-linecap:round;stroke-linejoin:round;stroke-dasharray:none;stroke-opacity:1"
         d="m 33.63831,128.47669 c 0.584247,0.2117 1.148725,0.23299 1.762622,0.23299 0.566108,0 1.14789,0.0379 1.710627,-0.0425"
         id="path3470" /><path
         style="fill:#ffffff;fill-opacity:1;fill-rule:evenodd;stroke:#ffffff;stroke-width:1.563;stroke-linecap:round;stroke-linejoin:round;stroke-dasharray:none;stroke-opacity:1"
         d="m 31.964153,125.87521 c 0.563888,0 -0.368958,0.0118 0.769411,-0.10288 1.014418,-0.10214 2.035548,-0.1272 3.050233,-0.22665 2.178365,-0.21349 4.368877,-0.46414 6.537161,-0.76415 1.520621,-0.25393 0.902425,-0.16428 1.850742,-0.29429"
         id="path4261" /><path
         style="fill:#ffffff;fill-opacity:1;fill-rule:evenodd;stroke:#ffffff;stroke-width:1.563;stroke-linecap:round;stroke-linejoin:round;stroke-dasharray:none;stroke-opacity:1"
         d="m 44.862358,124.61901 c -1.372201,0.64119 -1.422072,1.06447 -2.948477,2.72711 -0.201912,0.21994 -0.32507,0.50494 -0.530095,0.72197 -0.182814,0.19352 -0.425797,0.32081 -0.623457,0.49915 -0.22674,0.20456 -0.436864,0.427 -0.647816,0.64781 -0.05332,0.0558 -0.460089,0.53806 -0.598207,0.64605 -0.05054,0.0395 -0.114753,0.0574 -0.172149,0.0861 -0.129476,0.0647 -0.252526,0.14428 -0.388463,0.19395 -0.341702,0.12485 -0.752166,0.15561 -1.08884,0.30045 -0.03196,0.0137 -0.01783,0.07 -0.04106,0.0959 -0.05346,0.0596 -0.110021,0.11672 -0.16991,0.16991 -0.180925,0.16068 -0.401203,0.28385 -0.557604,0.47153 -0.215103,0.25812 -0.314365,0.58985 -0.512069,0.85346 -0.02402,0.032 -0.06509,0.0502 -0.08496,0.0849 -0.197054,0.34485 0.0028,0.0785 -0.127431,0.3823 -0.0388,0.0905 -0.121635,0.19016 -0.121635,0.28563"
         id="path4263" /><path
         style="fill:#ffffff;fill-opacity:1;fill-rule:evenodd;stroke:#ffffff;stroke-width:1.563;stroke-linecap:round;stroke-linejoin:round;stroke-dasharray:none;stroke-opacity:1"
         d="m 37.736594,131.62212 -0.429802,0.75435"
         id="path4265" /><path
         style="fill:#ffffff;fill-opacity:1;fill-rule:evenodd;stroke:#ffffff;stroke-width:1.563;stroke-linecap:round;stroke-linejoin:round;stroke-dasharray:none;stroke-opacity:1"
         d="m 37.658521,130.68298 c 1.607362,1.75167 0.312383,0.52328 0.788009,0.80865 0.03184,0.0191 0.06232,0.0425 0.104777,0.0425"
         id="path4267" /><path
         style="fill:#ffffff;fill-opacity:1;fill-rule:evenodd;stroke:#ffffff;stroke-width:1.563;stroke-linecap:round;stroke-linejoin:round;stroke-dasharray:none;stroke-opacity:1"
         d="m 27.796752,125.13277 c 1.307327,0.34084 2.610429,0.34657 3.94001,0.34657 0.304888,0 0.610587,-0.0222 0.914665,0 0.036,0.003 0.07022,0.0182 0.106191,0.0212 0.250862,0.0209 0.507888,-0.0542 0.742738,-0.13248"
         id="path4269" /><path
         style="fill:#ffffff;fill-opacity:1;fill-rule:evenodd;stroke:#ffffff;stroke-width:1.563;stroke-linecap:round;stroke-linejoin:round;stroke-dasharray:none;stroke-opacity:1"
         d="m 28.392498,125.87612 c 0.90065,1.34773 0.230571,0.37145 2.750825,3.21458 0.247431,0.27912 0.533683,0.49549 0.815033,0.7369 0.0839,0.072 0.161933,0.1508 0.247915,0.22028 0.134747,0.10889 0.179075,0.10312 0.339651,0.19252 0.182602,0.10165 0.36422,0.22076 0.533873,0.34194 0.107215,0.0766 0.21049,0.17406 0.307285,0.26268 0.04841,0.0443 0.08675,0.0998 0.139224,0.13922 0.04105,0.0308 0.09488,0.0407 0.137771,0.0689 0.01693,0.0111 0.0831,0.087 0.106193,0.10619 0.160631,0.13377 0.33664,0.24713 0.506256,0.36706 0.0327,0.0231 0.05552,0.0578 0.08495,0.085 0.247928,0.22877 0.484031,0.46879 0.735925,0.6928 0.02482,0.0221 0.186809,0.14868 0.211016,0.14868"
         id="path4271" /><path
         style="fill:#ffffff;fill-opacity:1;fill-rule:evenodd;stroke:#ffffff;stroke-width:1.563;stroke-linecap:round;stroke-linejoin:round;stroke-dasharray:none;stroke-opacity:1"
         d="m 29.5486,126.22217 c 1.997475,1.33167 0.155956,0.10743 5.977001,3.49213 0.124148,0.0722 0.268192,0.16767 0.417875,0.16767"
         id="path4273" /><path
         style="fill:#ffffff;fill-opacity:1;fill-rule:evenodd;stroke:#ffffff;stroke-width:1.563;stroke-linecap:round;stroke-linejoin:round;stroke-dasharray:none;stroke-opacity:1"
         d="m 31.348246,128.10079 c 0.04768,0.0477 0.09293,0.0979 0.143028,0.14303 2.161307,1.9465 0.920406,0.97598 2.583339,2.06314 0.145735,0.0953 0.281535,0.2051 0.426283,0.30188 0.379146,0.25347 0.128188,0.0951 0.684671,0.40901 0.02633,0.0148 0.210872,0.14053 0.276934,0.14053"
         id="path4275" /><path
         style="fill:#ffffff;fill-opacity:1;fill-rule:evenodd;stroke:#ffffff;stroke-width:1.563;stroke-linecap:round;stroke-linejoin:round;stroke-dasharray:none;stroke-opacity:1"
         d="m 31.253472,126.20726 c 2.334694,-0.59701 4.473538,2.46322 6.925056,2.46322"
         id="path4277" /><path
         style="fill:#ffffff;fill-opacity:1;fill-rule:evenodd;stroke:#ffffff;stroke-width:1.563;stroke-linecap:round;stroke-linejoin:round;stroke-dasharray:none;stroke-opacity:1"
         d="m 32.11259,127.36935 c 1.953138,-0.15609 3.906279,-0.31218 5.859417,-0.46826"
         id="path4279" /><path
         style="fill:#ffffff;fill-opacity:1;fill-rule:evenodd;stroke:#ffffff;stroke-width:1.563;stroke-linecap:round;stroke-linejoin:round;stroke-dasharray:none;stroke-opacity:1"
         d="m 41.73412,125.87932 c -0.569648,1.41847 -0.01913,0.0703 -2.520233,3.56848"
         id="path4281" /><path
         style="fill:#ffffff;fill-opacity:1;fill-rule:evenodd;stroke:#ffffff;stroke-width:1.563;stroke-linecap:round;stroke-linejoin:round;stroke-dasharray:none;stroke-opacity:1"
         d="m 40.013911,125.99974 c -2.158048,2.89868 -1.369574,1.93445 -2.238521,2.99198"
         id="path4283" /><path
         style="fill:#ffffff;fill-opacity:1;fill-rule:evenodd;stroke:#ffffff;stroke-width:1.563;stroke-linecap:round;stroke-linejoin:round;stroke-dasharray:none;stroke-opacity:1"
         d="m 39.093076,126.26457 c -0.647909,0.73092 -1.295818,1.46184 -1.943727,2.19276"
         id="path4285" /><path
         style="fill:#ffffff;fill-opacity:1;fill-rule:evenodd;stroke:#ffffff;stroke-width:1.563;stroke-linecap:round;stroke-linejoin:round;stroke-dasharray:none;stroke-opacity:1"
         d="m 41.552405,125.19985 c 0,1.72251 0.04992,0.16186 -3.204927,3.41638"
         id="path4287" /><path
         style="fill:#ffffff;fill-opacity:1;fill-rule:evenodd;stroke:#ffffff;stroke-width:1.563;stroke-linecap:round;stroke-linejoin:round;stroke-dasharray:none;stroke-opacity:1"
         d="m 37.821676,125.14454 c 0.282786,3.31061 0.291475,2.77409 0.291475,4.70238"
         id="path4289" /><path
         style="fill:#ffffff;fill-opacity:1;fill-rule:evenodd;stroke:#ffffff;stroke-width:1.563;stroke-linecap:round;stroke-linejoin:round;stroke-dasharray:none;stroke-opacity:1"
         d="m 36.215417,128.75736 c 0.506611,1.21873 0.09138,0.21599 1.21607,3.02034"
         id="path4291" /><path
         style="fill:#ffffff;fill-opacity:1;fill-rule:evenodd;stroke:#ffffff;stroke-width:1.563;stroke-linecap:round;stroke-linejoin:round;stroke-dasharray:none;stroke-opacity:1"
         d="m 34.868347,130.92487 c 2.327878,-0.22689 1.761384,0.32162 2.350426,-0.26742"
         id="path4293" /><path
         style="fill:#ffffff;fill-opacity:1;fill-rule:evenodd;stroke:#ffffff;stroke-width:1.563;stroke-linecap:round;stroke-linejoin:round;stroke-dasharray:none;stroke-opacity:1"
         d="m 35.367954,115.48195 c 1.863704,2.18604 0.153779,0.11541 0.206762,8.17917 0.0013,0.18984 -0.0149,0.3794 -0.02236,0.5691"
         id="path4295" /><path
         style="fill:#ffffff;fill-opacity:1;fill-rule:evenodd;stroke:#ffffff;stroke-width:1.563;stroke-linecap:round;stroke-linejoin:round;stroke-dasharray:none;stroke-opacity:1"
         d="m 34.446265,115.13753 c 0.691248,2.89969 0.410014,5.4036 0.112509,8.1739 -0.07729,0.71969 -0.194554,1.44223 -0.242679,2.16509 -0.0123,0.18499 0,0.37927 0,0.56543"
         id="path4297" /><path
         style="fill:#ffffff;fill-opacity:1;fill-rule:evenodd;stroke:#ffffff;stroke-width:1.563;stroke-linecap:round;stroke-linejoin:round;stroke-dasharray:none;stroke-opacity:1"
         d="m 36.827034,115.54163 c 0.203784,7.08853 0.139014,6.44541 0.339121,10.77424 0.01852,0.40077 0.06746,0.79202 -0.0114,1.18633"
         id="path4299" /><path
         style="fill:#ffffff;fill-opacity:1;fill-rule:evenodd;stroke:#ffffff;stroke-width:1.563;stroke-linecap:round;stroke-linejoin:round;stroke-dasharray:none;stroke-opacity:1"
         d="m 35.472706,124.12814 c 0.670552,0.67054 0.112511,0.16693 2.060725,0.91581"
         id="path4301" /><path
         style="fill:#ffffff;fill-opacity:1;fill-rule:evenodd;stroke:#ffffff;stroke-width:1.563;stroke-linecap:round;stroke-linejoin:round;stroke-dasharray:none;stroke-opacity:1"
         d="m 37.06831,120.54915 c 0.748718,1.73545 1.497436,3.4709 2.246153,5.20635"
         id="path4303" /><path
         style="fill:#ffffff;fill-opacity:1;fill-rule:evenodd;stroke:#ffffff;stroke-width:1.563;stroke-linecap:round;stroke-linejoin:round;stroke-dasharray:none;stroke-opacity:1"
         d="m 34.519393,109.18677 c 1.953959,4.90971 1.484633,3.14337 1.992188,5.10815"
         id="path4305" /><path
         style="fill:#ffffff;fill-opacity:1;fill-rule:evenodd;stroke:#ffffff;stroke-width:1.563;stroke-linecap:round;stroke-linejoin:round;stroke-dasharray:none;stroke-opacity:1"
         d="m 38.109149,109.07537 c 0.07953,1.67511 -0.85021,3.10569 -1.963145,4.21733 -0.105712,0.10559 -0.231,0.18957 -0.346501,0.28435 -0.192868,0.19424 -0.38553,0.38867 -0.578601,0.5827 -0.20659,0.20762 -0.249108,0.2373 -0.423977,0.45018 -0.108291,0.13182 -0.165941,0.21575 -0.275971,0.32578"
         id="path4307" /><path
         style="fill:#ffffff;fill-opacity:1;fill-rule:evenodd;stroke:#ffffff;stroke-width:1.563;stroke-linecap:round;stroke-linejoin:round;stroke-dasharray:none;stroke-opacity:1"
         d="m 34.129689,112.89578 c 0.971258,0.65342 1.94252,1.30684 2.913779,1.96026 0.266615,0 0.259622,0.0865 0.259622,-0.021"
         id="path4309" /><path
         style="fill:#ffffff;fill-opacity:1;fill-rule:evenodd;stroke:#ffffff;stroke-width:1.563;stroke-linecap:round;stroke-linejoin:round;stroke-dasharray:none;stroke-opacity:1"
         d="m 34.151546,111.46858 c 0.0354,0.0354 0.07294,0.0688 0.10619,0.10619 1.217785,1.37061 2.417747,2.75713 3.646729,4.11771 0.06565,0.0727 0.505213,0.51025 0.703971,0.68062 0.06652,0.057 0.152374,0.0882 0.213455,0.14932"
         id="path4313" /><path
         style="fill:#ffffff;fill-opacity:1;fill-rule:evenodd;stroke:#ffffff;stroke-width:1.563;stroke-linecap:round;stroke-linejoin:round;stroke-dasharray:none;stroke-opacity:1"
         d="m 38.150725,116.01814 c 0.218258,1.78434 0.400826,3.66813 -0.03572,5.4143"
         id="path4315" /><path
         style="fill:#ffffff;fill-opacity:1;fill-rule:evenodd;stroke:#ffffff;stroke-width:1.563;stroke-linecap:round;stroke-linejoin:round;stroke-dasharray:none;stroke-opacity:1"
         d="m 35.143503,109.35742 c 0.06982,0.0583 0.147071,0.10867 0.209471,0.17483 0.08568,0.0908 0.153527,0.19701 0.232463,0.29377 0.11277,0.13823 0.227491,0.27487 0.342616,0.41114 0.259173,0.30677 0.511062,0.61999 0.78027,0.91799 0.09761,0.10805 0.218953,0.19233 0.321918,0.29529"
         id="path4317" /><path
         style="fill:#ffffff;fill-opacity:1;fill-rule:evenodd;stroke:#ffffff;stroke-width:1.563;stroke-linecap:round;stroke-linejoin:round;stroke-dasharray:none;stroke-opacity:1"
         d="m 38.104902,115.219 c -0.0056,-0.84135 -0.106918,-1.59385 -0.358762,-2.37134 -0.07209,-0.22255 -0.160239,-0.43973 -0.230505,-0.66286 -0.345241,-1.09637 0.04894,0.10928 -0.108344,-0.49846 -0.05679,-0.21944 -0.147449,-0.43378 -0.221858,-0.64759 -0.04548,-0.13069 -0.07845,-0.26598 -0.132046,-0.39356 -0.03651,-0.0869 -0.09696,-0.16203 -0.13716,-0.24728 -0.0136,-0.0288 -0.01177,-0.063 -0.0232,-0.0928 -0.294642,-0.66114 0.01916,0.0825 -0.110543,-0.30658 -0.05927,-0.17781 -0.148669,-0.35855 -0.148669,-0.5522"
         id="path4319" /><g
         id="g3261"
         transform="translate(-5.8682095,-2.9189044)"><rect
           style="fill:#4d4f5b;fill-opacity:1;fill-rule:evenodd;stroke:none;stroke-width:2.23746;stroke-linecap:round;stroke-linejoin:round"
           id="rect1026"
           width="1.6822864"
           height="16.48678"
           x="44.288765"
           y="110.77905"
           rx="0.84114319"
           ry="0.90556306"
           transform="rotate(0.21971043)" /><rect
           style="fill:#4d4f5b;fill-opacity:1;fill-rule:evenodd;stroke:none;stroke-width:2.11152;stroke-linecap:round;stroke-linejoin:round"
           id="rect1095"
           width="8.5371103"
           height="1.4111789"
           x="43.945694"
           y="126.02927"
           rx="0.85849249"
           ry="0.92948794" /><path
           style="fill:none;fill-opacity:1;fill-rule:evenodd;stroke:#4d4f5b;stroke-width:1.53222;stroke-linecap:round;stroke-linejoin:round;stroke-dasharray:none;stroke-opacity:1"
           d="m 52.01021,127.53734 -9.636189,9.58963"
           id="path1953" /><path
           style="fill:none;fill-opacity:1;fill-rule:evenodd;stroke:#4d4f5b;stroke-width:1.64209;stroke-linecap:round;stroke-linejoin:round;stroke-dasharray:none;stroke-opacity:1"
           id="path2071"
           sodipodi:type="arc"
           sodipodi:cx="50.135223"
           sodipodi:cy="127.29999"
           sodipodi:rx="1.866174"
           sodipodi:ry="1.0452369"
           sodipodi:start="5.854471"
           sodipodi:end="0.23878027"
           sodipodi:open="true"
           sodipodi:arc-type="arc"
           d="m 51.83251,126.86548 a 1.866174,1.0452369 0 0 1 0.115939,0.68172" /><path
           style="fill:none;fill-opacity:1;fill-rule:evenodd;stroke:#4d4f5b;stroke-width:1.563;stroke-linecap:round;stroke-linejoin:round;stroke-dasharray:none;stroke-opacity:1"
           d="m 31.867057,127.39356 10.241541,9.79271"
           id="path2142" /><path
           style="fill:none;fill-opacity:1;fill-rule:evenodd;stroke:#4d4f5b;stroke-width:1.563;stroke-linecap:round;stroke-linejoin:round;stroke-dasharray:none;stroke-opacity:1"
           d="m 31.866154,127.18494 7.663559,-0.0566 0.224299,-15.45369"
           id="path2146" /><path
           style="fill:#cccccc;fill-opacity:1;fill-rule:evenodd;stroke:#4d4f5b;stroke-width:1.563;stroke-linecap:round;stroke-linejoin:round;stroke-dasharray:none;stroke-opacity:1"
           d="m 39.788881,111.66896 4.952463,-0.0535"
           id="path3252" /></g></g></g></svg>
